# Blender v3.4.1 OBJ File: ''
# www.blender.org
mtllib Fighter_collisionmesh.mtl
o Cube_Cube.001
v 0.296494 -0.436058 -6.113370
v 0.503231 -0.549385 3.907377
v 0.636193 0.177944 3.921354
v 0.429456 0.064616 -6.099393
v 1.137109 0.164667 -6.834853
v 1.322744 0.030757 0.802379
v 4.185435 -0.022290 -2.444506
v 4.151817 -0.022290 -3.779618
v 1.125502 -0.361658 -6.837032
v 1.311137 -0.227747 0.800200
v 4.173829 -0.174700 -2.446685
v 4.140210 -0.174700 -3.781797
v 0.000000 0.064616 -6.099393
v 0.000000 -0.436058 -6.113370
v 0.000000 -0.549385 3.907377
v 0.219634 0.366145 -4.303105
v 0.304418 0.657917 3.943413
v 0.000000 0.366145 -4.303105
v 0.000000 0.657917 3.943413
v 0.161476 -0.113028 7.574567
v 0.182272 -0.412146 7.105209
v 0.100509 0.084364 7.120028
v 0.000000 -0.113028 7.574567
v 0.000000 -0.412146 7.105209
v 0.000000 0.084364 7.120028
v 1.338971 1.263563 -5.739955
v 1.854311 -0.049803 -3.666445
v 2.455046 -0.040945 -6.313259
v 1.094323 1.259955 -4.662045
v 2.365968 -0.115380 -6.333726
v 1.765233 -0.124238 -3.686912
v -0.296494 -0.436058 -6.113370
v -0.503231 -0.549385 3.907377
v -0.636193 0.177944 3.921354
v -0.429456 0.064616 -6.099393
v -1.137109 0.164667 -6.834853
v -1.322744 0.030757 0.802379
v -4.185435 -0.022290 -2.444506
v -4.151817 -0.022290 -3.779618
v -1.125502 -0.361658 -6.837032
v -1.311137 -0.227747 0.800200
v -4.173829 -0.174700 -2.446685
v -4.140210 -0.174700 -3.781797
v -0.219634 0.366145 -4.303105
v -0.304418 0.657917 3.943413
v -0.161476 -0.113028 7.574567
v -0.182272 -0.412146 7.105209
v -0.100509 0.084364 7.120028
v -1.338971 1.263563 -5.739955
v -1.854311 -0.049803 -3.666445
v -2.455046 -0.040945 -6.313259
v -1.094323 1.259955 -4.662045
v -2.365968 -0.115380 -6.333726
v -1.765233 -0.124238 -3.686912
vt 0.000000 0.000000
vt 0.000000 0.000000
vt 0.000000 0.000000
vt 0.000000 0.000000
vt 0.000000 0.000000
vt 0.000000 0.000000
vt 0.000000 0.000000
vt 0.000000 0.000000
vt 0.000000 0.000000
vt 0.000000 0.000000
vt 0.000000 0.000000
vt 0.000000 0.000000
vt 0.000000 0.000000
vt 0.000000 0.000000
vt 0.000000 0.000000
vt 0.000000 0.000000
vt 0.000000 0.000000
vt 0.000000 0.000000
vt 0.000000 0.000000
vt 0.000000 0.000000
vt 0.000000 0.000000
vt 0.000000 0.000000
vt 0.000000 0.000000
vt 0.000000 0.000000
vt 0.000000 0.000000
vt 0.000000 0.000000
vt 0.000000 0.000000
vt 0.000000 0.000000
vt 0.000000 0.000000
vt 0.000000 0.000000
vt 0.000000 0.000000
vt 0.000000 0.000000
vt 0.000000 0.000000
vt 0.000000 0.000000
vt 0.000000 0.000000
vt 0.000000 0.000000
vt 0.000000 0.000000
vt 0.000000 0.000000
vt 0.000000 0.000000
vt 0.000000 0.000000
vt 0.000000 0.000000
vt 0.000000 0.000000
vt 0.000000 0.000000
vt 0.000000 0.000000
vt 0.000000 0.000000
vt 0.000000 0.000000
vt 0.000000 0.000000
vt 0.000000 0.000000
vt 0.000000 0.000000
vt 0.000000 0.000000
vt 0.000000 0.000000
vt 0.000000 0.000000
vt 0.000000 0.000000
vt 0.000000 0.000000
vn -0.6910 0.1085 -0.7147
vn 0.0349 0.9994 0.0004
vn 0.0412 0.9991 0.0139
vn 0.0412 -0.9991 0.0139
vn 0.9968 -0.0755 -0.0251
vn 0.2265 -0.9740 -0.0039
vn 0.9630 -0.1449 0.2271
vn 0.7492 -0.0493 0.6605
vn 0.7117 -0.0198 -0.7022
vn 0.0000 -0.9999 -0.0113
vn 0.0000 0.9994 -0.0354
vn 0.0000 0.0279 -0.9996
vn 0.0000 0.9841 0.1777
vn 0.0000 0.9862 -0.1655
vn 0.7921 0.6098 -0.0262
vn 0.0000 -0.9991 0.0429
vn 0.0000 -0.8433 0.5374
vn 0.0000 0.9172 0.3983
vn 0.8098 0.5667 0.1522
vn 0.9811 -0.1592 0.1104
vn 0.7851 0.5925 0.1802
vn -0.8248 -0.5329 -0.1890
vn -0.4729 0.3427 0.8118
vn -0.0749 0.3468 -0.9350
vn 0.6164 -0.7754 0.1373
vn 0.6910 0.1085 -0.7147
vn -0.0349 0.9994 0.0004
vn -0.0412 0.9991 0.0139
vn -0.0412 -0.9991 0.0139
vn -0.9968 -0.0755 -0.0251
vn -0.2265 -0.9740 -0.0039
vn -0.9630 -0.1449 0.2271
vn -0.7492 -0.0493 0.6605
vn -0.7117 -0.0198 -0.7022
vn -0.7921 0.6098 -0.0262
vn -0.8098 0.5667 0.1522
vn -0.9811 -0.1592 0.1104
vn -0.7851 0.5925 0.1802
vn 0.8248 -0.5329 -0.1890
vn 0.4729 0.3427 0.8118
vn 0.0749 0.3468 -0.9350
vn -0.6164 -0.7754 0.1373
usemtl None
s off
f 4/1/1 5/2/1 9/3/1 1/4/1
f 5/2/2 4/1/2 3/5/2 6/6/2
f 8/7/3 5/2/3 6/6/3 7/8/3
f 12/9/4 11/10/4 10/11/4 9/3/4
f 8/7/5 7/8/5 11/10/5 12/9/5
f 9/3/6 10/11/6 2/12/6 1/4/6
f 6/6/7 3/5/7 2/12/7 10/11/7
f 7/8/8 6/6/8 10/11/8 11/10/8
f 5/2/9 8/7/9 12/9/9 9/3/9
f 1/4/10 2/12/10 15/13/10 14/14/10
f 17/15/11 16/16/11 18/17/11 19/18/11
f 4/1/12 1/4/12 14/14/12 13/19/12
f 17/15/13 19/18/13 25/20/13 22/21/13
f 4/1/14 13/19/14 18/17/14 16/16/14
f 3/5/15 4/1/15 16/16/15 17/15/15
f 15/13/16 2/12/16 21/22/16 24/23/16
f 21/22/17 20/24/17 23/25/17 24/23/17
f 23/25/18 20/24/18 22/21/18 25/20/18
f 3/5/19 17/15/19 22/21/19 20/24/19
f 2/12/20 3/5/20 20/24/20 21/22/20
f 29/26/21 27/27/21 28/28/21 26/29/21
f 29/26/22 26/29/22 30/30/22 31/31/22
f 27/27/23 29/26/23 31/31/23
f 26/29/24 28/28/24 30/30/24
f 28/28/25 27/27/25 31/31/25 30/30/25
f 35/32/26 32/33/26 40/34/26 36/35/26
f 36/35/27 37/36/27 34/37/27 35/32/27
f 39/38/28 38/39/28 37/36/28 36/35/28
f 43/40/29 40/34/29 41/41/29 42/42/29
f 39/38/30 43/40/30 42/42/30 38/39/30
f 40/34/31 32/33/31 33/43/31 41/41/31
f 37/36/32 41/41/32 33/43/32 34/37/32
f 38/39/33 42/42/33 41/41/33 37/36/33
f 36/35/34 40/34/34 43/40/34 39/38/34
f 32/33/10 14/14/10 15/13/10 33/43/10
f 45/44/11 19/18/11 18/17/11 44/45/11
f 35/32/12 13/19/12 14/14/12 32/33/12
f 45/44/13 48/46/13 25/20/13 19/18/13
f 35/32/14 44/45/14 18/17/14 13/19/14
f 34/37/35 45/44/35 44/45/35 35/32/35
f 15/13/16 24/23/16 47/47/16 33/43/16
f 47/47/17 24/23/17 23/25/17 46/48/17
f 23/25/18 25/20/18 48/46/18 46/48/18
f 34/37/36 46/48/36 48/46/36 45/44/36
f 33/43/37 47/47/37 46/48/37 34/37/37
f 52/49/38 49/50/38 51/51/38 50/52/38
f 52/49/39 54/53/39 53/54/39 49/50/39
f 50/52/40 54/53/40 52/49/40
f 49/50/41 53/54/41 51/51/41
f 51/51/42 53/54/42 54/53/42 50/52/42
